<?xml version="1.0" encoding="utf-8"?>
<!-- Generator: Adobe Illustrator 25.0.1, SVG Export Plug-In . SVG Version: 6.00 Build 0)  -->
<svg version="1.1" id="Layer_1" xmlns="http://www.w3.org/2000/svg" xmlns:xlink="http://www.w3.org/1999/xlink" x="0px" y="0px"
	 viewBox="0 0 861.12 307.58" style="enable-background:new 0 0 861.12 307.58;" xml:space="preserve">
<style type="text/css">
	.st0{fill:#F7F8F8;}
</style>
<g>
	<g>
		<g>
			<path class="st0" d="M378.51,75.59l-12.87,6.38l2.69,1.36c2.4,1.22,4.56,2.31,6.78,3.39l3.4,1.66v40.67h19.76v-7.62h-11.53V42.57
				h11.53v-7.62h-19.76V75.59z"/>
			<path class="st0" d="M490.5,80.67c-2.29-1.16-4.53-2.3-6.78-3.39l-3.4-1.66V34.94h-19.76v7.62h11.53v78.86h-11.53v7.62h19.76
				V88.41l12.87-6.38L490.5,80.67z"/>
		</g>
		<g>
			<path class="st0" d="M532.15,0H326.68c-13.82,0-25.02,11.2-25.02,25.02v113.95c0,13.82,11.2,25.02,25.02,25.02h205.48
				c13.82,0,25.02-11.2,25.02-25.02V25.02C557.18,11.2,545.97,0,532.15,0z M429.42,161.86c-1.82,0-3.29-1.47-3.29-3.29
				c0-1.82,1.47-3.29,3.29-3.29c1.82,0,3.29,1.47,3.29,3.29C432.7,160.39,431.23,161.86,429.42,161.86z M545.83,138.98
				c0,7.54-6.14,13.68-13.68,13.68H326.68c-7.54,0-13.68-6.14-13.68-13.68V25.02c0-7.54,6.13-13.68,13.68-13.68h205.48
				c7.54,0,13.68,6.14,13.68,13.68V138.98z"/>
		</g>
		<g>
			<path class="st0" d="M417.6,190.11h-86.23v-9.78h76.18c-1.99-16.73-14.14-17.83-15.63-17.9l0.32-9.77
				c0.25,0.01,25.36,1.09,25.36,32.57V190.11z"/>
			<path class="st0" d="M441.24,190.11h86.23v-9.78h-76.18c1.99-16.73,14.14-17.83,15.63-17.9l-0.32-9.77
				c-0.25,0.01-25.36,1.09-25.36,32.57V190.11z"/>
		</g>
	</g>
	<g>
		<g>
			<path class="st0" d="M11.44,283.03v-7.4h20.83c3.48,0.14,5.22-1.42,5.22-4.68v-3.57c0-3.19-1.61-4.79-4.82-4.79H7.47v44.96H0
				v-52.46h33.74c7.46,0.07,11.2,3.84,11.22,11.29v5.29c0,7.58-3.74,11.38-11.22,11.4H22.37l23.55,24.51H35.84L11.44,283.03z"/>
			<path class="st0" d="M74.82,255.08h22.51c7.53,0,11.29,3.72,11.29,11.15v30.09c-0.02,7.53-3.79,11.29-11.29,11.29H74.82
				c-7.5,0-11.26-3.75-11.26-11.26v-30.02C63.57,258.83,67.32,255.08,74.82,255.08z M71.07,267.94v27.16c0,3.34,1.66,5,4.97,5h20.12
				c3.29,0,4.93-1.64,4.93-4.93v-27.55c0-3.36-1.68-5.04-5.04-5.04H76.11C72.75,262.58,71.07,264.37,71.07,267.94z"/>
			<path class="st0" d="M150.47,307.65l-15.79-34.42v34.38h-7.5l0.04-52.53h7.47l19.87,43.67l19.66-43.96h7.43v52.75h-7.43v-34.31
				l-15.54,34.42H150.47z"/>
			<path class="st0" d="M209.97,307.61h-7.43v-52.5h7.43V307.61z"/>
			<path class="st0" d="M226.47,307.58l25.69-52.32h5.68l25.48,52.35h-8.36l-5.36-11.22h-23.48l3.47-7.15h16.55l-11.22-22.3
				l-19.87,40.63H226.47z"/>
			<path class="st0" d="M334.96,295.28v-40.2h7.47v52.5h-7.54l-29.77-39.77v39.77h-7.72v-52.5h7.11L334.96,295.28z"/>
		</g>
		<g>
			<path class="st0" d="M423.45,254.87v7.47h-18.54v45.31h-7.47v-45.31h-18.9l0.04-7.47H423.45z"/>
			<path class="st0" d="M427.97,307.58l25.83-52.6h5.71l25.62,52.64h-8.41l-5.39-11.28h-23.61l3.49-7.19h16.64l-11.28-22.42
				l-19.98,40.85H427.97z"/>
			<path class="st0" d="M509.09,307.61h-7.47v-52.78h7.47V307.61z"/>
			<path class="st0" d="M540.81,282.89v-7.44h20.95c3.5,0.14,5.25-1.42,5.25-4.71v-3.59c0-3.21-1.62-4.82-4.85-4.82h-25.33v45.2
				h-7.51v-52.75h33.92c7.5,0.07,11.26,3.86,11.28,11.35v5.32c0,7.62-3.76,11.44-11.28,11.46h-11.43l23.68,24.65h-10.13
				L540.81,282.89z"/>
			<path class="st0" d="M604.55,254.79h22.64c7.57,0,11.35,3.74,11.35,11.21v30.25c-0.02,7.57-3.81,11.35-11.35,11.35h-22.64
				c-7.55,0-11.32-3.77-11.32-11.32v-30.18C593.23,258.57,597,254.79,604.55,254.79z M600.77,267.73v27.31
				c0,3.35,1.66,5.03,4.99,5.03H626c3.31,0,4.96-1.65,4.96-4.96v-27.7c0-3.38-1.69-5.07-5.07-5.07h-20.05
				C602.46,262.34,600.77,264.14,600.77,267.73z"/>
			<path class="st0" d="M702.92,254.9h8.41l-25.62,52.64h-5.71l-25.83-52.6h8.62l19.98,40.85L702.92,254.9z"/>
			<path class="st0" d="M725.4,307.61v-7.55h32.05c3.47-0.02,5.2-1.75,5.17-5.17v-7.11c0.02-3.31-1.7-4.96-5.17-4.96h-21.23
				c-7.55,0-11.32-3.82-11.32-11.46l0.04-5.25c0-7.52,3.77-11.29,11.32-11.32h33.52v7.55h-32.41c-3.28,0-4.92,1.57-4.92,4.71v3.45
				c0,3.31,1.59,4.96,4.78,4.96h21.63c7.57,0,11.35,3.5,11.35,10.49v10.31c-0.02,7.55-3.81,11.33-11.35,11.35H725.4z"/>
			<path class="st0" d="M796.32,307.58l-7.47,0.04v-52.82h7.47V307.58z M800.16,278.9l22.78-24h9.74l-23.14,24.22l23.28,28.49h-9.09
				L800.16,278.9z"/>
			<path class="st0" d="M858.83,307.61h-7.47v-52.78h7.47V307.61z"/>
		</g>
	</g>
</g>
</svg>
