<?xml version="1.0" encoding="utf-8"?>
<!-- Generator: Adobe Illustrator 25.0.1, SVG Export Plug-In . SVG Version: 6.00 Build 0)  -->
<svg version="1.1" id="Layer_1" xmlns="http://www.w3.org/2000/svg" xmlns:xlink="http://www.w3.org/1999/xlink" x="0px" y="0px"
	 viewBox="0 0 928 264" style="enable-background:new 0 0 928 264;" xml:space="preserve">
<style type="text/css">
	.st0{fill:#F8F8F8;}
	.st1{fill:none;stroke:#FFFFFF;stroke-width:9;stroke-miterlimit:10;}
</style>
<g>
	<g>
		<path class="st0" d="M185.35,140.67c-0.48,0-1.29-0.32-1.45-0.64l-28.29-45.17h-7.88v44.52c0,0.64-0.64,1.29-1.61,1.29h-18.32
			c-0.96,0-1.61-0.64-1.61-1.29V75.25c0-0.64,0.64-1.29,1.61-1.29h14.95c-5.46-8.52-11.09-17.52-16.56-26.04V29.44
			c0-0.64,0.64-1.29,1.61-1.29h36.65c0,0,38.25,0,38.25,33.27c0,19.77-12.7,27.65-23.63,31.02l28.93,46.29
			c0.64,0.96,0,1.93-1.13,1.93H185.35z M166.54,73.8c6.11-0.16,14.63-2.73,14.63-12.38c0-12.38-13.02-12.38-16.72-12.38h-13.5
			L166.54,73.8z"/>
		<path class="st0" d="M481.57,139.38c0,0.64-0.64,1.29-1.61,1.29h-18.32c-0.96,0-1.61-0.64-1.61-1.29V77.66l-28.61,57.7
			c-0.16,0.32-0.96,0.8-1.29,0.8h-17.36c-0.48,0-1.29-0.48-1.45-0.8l-30.54-59.15v63.17c0,0.64-0.64,1.29-1.61,1.29H360.7
			c-0.96,0-1.45-0.64-1.45-1.29V29.28c0-0.64,0.48-1.29,1.45-1.29h18.81c0.48,0,1.29,0.48,1.45,0.8l40.34,82.62l38.58-82.62
			c0.16-0.32,0.96-0.8,1.45-0.8h18.64c0.96,0,1.61,0.64,1.61,1.29V139.38z"/>
		<path class="st0" d="M549.4,47.44v73.94h11.25c0.96,0,1.61,0.64,1.61,1.29v16.72c0,0.64-0.64,1.29-1.61,1.29h-44.2
			c-0.96,0-1.61-0.64-1.61-1.29v-16.72c0-0.64,0.64-1.29,1.61-1.29h11.41V47.44h-10.77c-0.96,0-1.61-0.64-1.61-1.29V29.44
			c0-0.64,0.64-1.29,1.61-1.29h42.92c0.96,0,1.61,0.64,1.61,1.29v16.72c0,0.64-0.64,1.29-1.61,1.29H549.4z"/>
		<path class="st0" d="M647.28,127.97H610.8l-4.34,11.89c-0.16,0.48-0.8,0.8-1.45,0.8h-19.77c-1.29,0-1.93-0.8-1.45-1.77
			l43.88-113.15c0.48-1.13,2.41-1.13,2.89,0l43.88,113.15c0.48,0.96-0.16,1.77-1.29,1.77h-19.93c-0.48,0-1.13-0.32-1.29-0.8
			L647.28,127.97z M617.71,109h22.66l-11.25-33.75L617.71,109z"/>
		<path class="st0" d="M797.25,139.38c0,0.64-0.64,1.29-1.61,1.29h-18.48c-0.32,0-1.13-0.16-1.29-0.48l-51.76-74.1v73.29
			c0,0.64-0.64,1.29-1.61,1.29h-18.48c-0.8,0-1.45-0.64-1.45-1.29V29.44c0-0.64,0.64-1.29,1.45-1.29h18.64
			c0.32,0,1.13,0.16,1.29,0.48l51.92,74.1V29.44c0-0.64,0.64-1.29,1.61-1.29h18.16c0.96,0,1.61,0.64,1.61,1.29V139.38z"/>
		<g>
			<path class="st0" d="M79.92,263.98H54.55c-8.65,0-15.8-2.82-21.43-8.46c-5.64-5.64-8.46-12.78-8.46-21.43V152L0.17,129.26v-4.23
				l24.49-22.6v-72.9c0-8.65,2.82-15.79,8.46-21.43c5.64-5.64,12.78-8.46,21.43-8.46h25.37v17.64c-1.26,0-3.52-0.07-6.78-0.22
				c-3.26-0.15-5.76-0.22-7.51-0.22c-13.71,0-20.56,5.06-20.56,15.16v67.65c0,6.03-2.38,11.37-7.14,16.04
				c-4.96,3.79-9.87,7.63-14.73,11.52c4.86,3.79,9.77,7.63,14.73,11.52c4.76,4.67,7.14,9.96,7.14,15.89v77.13
				c0,10.01,6.85,15.02,20.56,15.02c1.75,0,4.25-0.07,7.51-0.22c3.26-0.15,5.52-0.22,6.78-0.22V263.98z"/>
			<path class="st0" d="M843.52,246.34c1.26,0,3.52,0.07,6.78,0.22c3.26,0.15,5.76,0.22,7.51,0.22c13.71,0,20.56-5.01,20.56-15.02
				v-77.13c0-5.93,2.38-11.23,7.14-15.89c4.96-3.89,9.87-7.73,14.73-11.52c-4.86-3.89-9.77-7.73-14.73-11.52
				c-4.76-4.67-7.14-10.01-7.14-16.04V32.01c0-10.11-6.85-15.16-20.56-15.16c-1.75,0-4.25,0.07-7.51,0.22
				c-3.26,0.15-5.52,0.22-6.78,0.22V-0.36h25.37c8.65,0,15.8,2.82,21.43,8.46c5.64,5.64,8.46,12.78,8.46,21.43v72.9l24.49,22.6v4.23
				L898.78,152v82.09c0,8.65-2.82,15.79-8.46,21.43c-5.64,5.64-12.78,8.46-21.43,8.46h-25.37V246.34z"/>
		</g>
		<g>
			<g>
				<path class="st0" d="M251.62,206.32c0,0.27-0.27,0.54-0.67,0.54h-8.97v38.28c0,0.27-0.27,0.54-0.67,0.54h-7.56
					c-0.4,0-0.67-0.27-0.67-0.54v-38.28h-8.97c-0.4,0-0.67-0.27-0.67-0.54v-6.96c0-0.27,0.27-0.54,0.67-0.54h26.84
					c0.4,0,0.67,0.27,0.67,0.54V206.32z"/>
				<path class="st0" d="M299.34,240.39h-15.19l-1.81,4.95c-0.07,0.2-0.33,0.33-0.6,0.33h-8.23c-0.53,0-0.8-0.33-0.6-0.74
					l18.27-47.12c0.2-0.47,1-0.47,1.2,0l18.27,47.12c0.2,0.4-0.07,0.74-0.54,0.74h-8.3c-0.2,0-0.47-0.13-0.54-0.33L299.34,240.39z
					 M287.03,232.49h9.44l-4.69-14.06L287.03,232.49z"/>
				<path class="st0" d="M346.94,206.86v30.79h4.69c0.4,0,0.67,0.27,0.67,0.54v6.96c0,0.27-0.27,0.54-0.67,0.54h-18.41
					c-0.4,0-0.67-0.27-0.67-0.54v-6.96c0-0.27,0.27-0.54,0.67-0.54h4.75v-30.79h-4.48c-0.4,0-0.67-0.27-0.67-0.54v-6.96
					c0-0.27,0.27-0.54,0.67-0.54h17.87c0.4,0,0.67,0.27,0.67,0.54v6.96c0,0.27-0.27,0.54-0.67,0.54H346.94z"/>
				<path class="st0" d="M403.9,245.68c-0.2,0-0.54-0.13-0.6-0.27l-11.78-18.81h-3.28v18.54c0,0.27-0.27,0.54-0.67,0.54h-7.63
					c-0.4,0-0.67-0.27-0.67-0.54v-26.71c0-0.27,0.27-0.54,0.67-0.54h6.22c-2.28-3.55-4.62-7.3-6.89-10.84v-7.7
					c0-0.27,0.27-0.54,0.67-0.54h15.26c0,0,15.93,0,15.93,13.85c0,8.23-5.29,11.51-9.84,12.92l12.05,19.28c0.27,0.4,0,0.8-0.47,0.8
					H403.9z M396.07,217.84c2.54-0.07,6.09-1.14,6.09-5.15c0-5.15-5.42-5.15-6.96-5.15h-5.62L396.07,217.84z"/>
				<path class="st0" d="M535.83,198.83c0.4,0,0.74,0.33,0.54,0.74l-18.21,47.66c-0.2,0.47-1,0.47-1.2,0l-18.34-47.66
					c-0.2-0.4,0.13-0.74,0.6-0.74H535.83z M517.56,225.87l6.76-18.74h-13.59L517.56,225.87z"/>
				<path class="st0" d="M559.93,232.49c0-0.27,0.27-0.54,0.67-0.54h7.63c0.33,0,0.67,0.27,0.67,0.54c0.13,3.41,2.94,5.15,6.02,5.15
					c3.21,0,6.02-2.14,6.02-5.36c0-3.55-3.28-5.69-6.02-5.82c-0.4,0-3.68,0-7.16-1.61c-5.02-2.34-7.83-6.56-7.83-12.18
					c0-9.04,7.3-14.52,14.99-14.52c8.23,0,14.66,5.56,14.79,13.72c0,0.2-0.27,0.47-0.67,0.47h-7.56c-0.33,0-0.67-0.27-0.67-0.47
					c-0.13-3.41-2.74-5.02-5.89-5.02c-3.28,0-6.02,1.94-6.02,5.82c0,3.48,2.94,5.29,6.02,5.29c0.33,0,3.68,0,7.09,1.61
					c5.09,2.34,7.83,7.1,7.83,12.72c0,9.04-7.23,14.06-14.93,14.06C566.63,246.15,560.07,241.33,559.93,232.49z"/>
				<path class="st0" d="M636.58,222.65l18.81,22.15c0.4,0.4,0.07,0.87-0.54,0.87h-10.04c-0.13,0-0.47-0.13-0.54-0.2l-13.65-16.87
					c-1.14,1.27-2.34,2.81-3.61,4.08v12.45c0,0.27-0.27,0.54-0.6,0.54h-7.7c-0.4,0-0.67-0.27-0.67-0.54v-45.78
					c0-0.27,0.27-0.54,0.67-0.54h7.7c0.33,0,0.6,0.27,0.6,0.54v21.28l17.6-21.62c0.07-0.07,0.4-0.2,0.53-0.2h9.57
					c0.6,0,0.94,0.47,0.54,0.87L636.58,222.65z"/>
				<path class="st0" d="M692.6,206.86v30.79h4.69c0.4,0,0.67,0.27,0.67,0.54v6.96c0,0.27-0.27,0.54-0.67,0.54h-18.41
					c-0.4,0-0.67-0.27-0.67-0.54v-6.96c0-0.27,0.27-0.54,0.67-0.54h4.75v-30.79h-4.48c-0.4,0-0.67-0.27-0.67-0.54v-6.96
					c0-0.27,0.27-0.54,0.67-0.54h17.87c0.4,0,0.67,0.27,0.67,0.54v6.96c0,0.27-0.27,0.54-0.67,0.54H692.6z"/>
			</g>
		</g>
		<g>
			<path class="st0" d="M279.38,26.55c-31.58,0-57.49,25.92-57.49,57.06c0,31.36,25.92,57.06,57.49,57.06
				c31.58,0,57.49-25.7,57.49-57.06C336.87,52.47,310.95,26.55,279.38,26.55z M279.38,121.22c-20.33,0-36.81-16.48-36.81-36.81
				c0-20.33,16.48-36.81,36.81-36.81c20.33,0,36.81,16.48,36.81,36.81C316.19,104.74,299.71,121.22,279.38,121.22z"/>
		</g>
	</g>
	<circle class="st1" cx="456.2" cy="222.25" r="19.52"/>
</g>
</svg>
